<svg xmlns="http://www.w3.org/2000/svg" viewBox="0 0 1600 1000" preserveAspectRatio="xMidYMax slice">
  <defs>
    <linearGradient id="sky" x1="0" y1="0" x2="0" y2="1">
      <stop offset="0%" stop-color="#4a3c2c"/>
      <stop offset="55%" stop-color="#8f6f3f"/>
      <stop offset="100%" stop-color="#d8b98a"/>
    </linearGradient>
    <linearGradient id="sun" x1="0" y1="0" x2="0" y2="1">
      <stop offset="0%" stop-color="#f6efe1"/>
      <stop offset="100%" stop-color="#d8b98a"/>
    </linearGradient>
  </defs>
  <rect width="1600" height="1000" fill="url(#sky)"/>
  <circle cx="1180" cy="430" r="150" fill="url(#sun)" opacity="0.6"/>
  <g fill="#38424f" opacity="0.85">
    <rect x="60" y="560" width="90" height="360"/>
    <rect x="170" y="480" width="70" height="440"/>
    <rect x="260" y="600" width="110" height="320"/>
    <rect x="390" y="420" width="80" height="500"/>
    <rect x="490" y="520" width="60" height="400"/>
    <rect x="570" y="470" width="95" height="450"/>
    <rect x="690" y="560" width="70" height="360"/>
    <rect x="780" y="500" width="100" height="420"/>
    <rect x="900" y="440" width="75" height="480"/>
    <rect x="1000" y="580" width="120" height="340"/>
    <rect x="1150" y="500" width="85" height="420"/>
    <rect x="1260" y="560" width="65" height="360"/>
    <rect x="1350" y="470" width="100" height="450"/>
    <rect x="1470" y="600" width="80" height="320"/>
  </g>
  <g fill="#2a323c" opacity="0.85">
    <rect x="90" y="600" width="14" height="20"/>
    <rect x="120" y="600" width="14" height="20"/>
    <rect x="90" y="650" width="14" height="20"/>
    <rect x="120" y="650" width="14" height="20"/>
    <rect x="410" y="460" width="16" height="22"/>
    <rect x="450" y="460" width="16" height="22"/>
    <rect x="410" y="520" width="16" height="22"/>
    <rect x="450" y="520" width="16" height="22"/>
    <rect x="800" y="540" width="16" height="22"/>
    <rect x="840" y="540" width="16" height="22"/>
    <rect x="1370" y="510" width="16" height="22"/>
    <rect x="1410" y="510" width="16" height="22"/>
  </g>
</svg>
